<?xml version="1.0" encoding="UTF-8"?>
<svg xmlns="http://www.w3.org/2000/svg" viewBox="0 0 500 500" width="500" height="500">
<path d="M108.03 5.15C138.6 5.08 169.18 5.13 199.75 5.13C210.08 5.13 220.42 5.13 230.75 5.13C235.26 5.13 240.27 4.5 244.73 5.15C245.87 5.31 246.56 6.35 247.76 6.42C249.33 6.51 250.24 5.22 251.75 5.13C259.43 4.66 268.11 4.41 275.75 5.26C278.57 8.34 282.13 9.82 284.55 5.25C293.84 5.25 303.14 5.25 312.43 5.25C316.56 14.17 322.89 12.35 327.5 5.25C338.6 5.25 349.69 5.25 360.79 5.25C362.32 7.27 362.6 9.83 364.6 11.65C369.16 15.78 376.19 14.97 379.82 10.08C380.92 8.61 381.24 6.87 382.25 5.36C387.03 4.32 392.83 5.12 397.75 5.13C399.56 5.14 401.95 4.69 403.4 5.75C403.42 8.93 397.22 7.29 393.76 10.52C388.3 15.61 389.02 24.8 395.45 28.78C397.88 30.29 400.56 30 403.25 30.43C403.25 33.33 403.25 36.24 403.25 39.14C401.01 39.45 398.59 39.26 396.48 40.25C389.07 43.74 387.86 54.43 394.2 59.55C397.02 61.82 399.95 61.66 403.3 62.25C403.28 65.05 403.27 67.85 403.25 70.65C400.61 71.08 397.94 70.83 395.54 72.29C388.73 76.44 388.4 85.99 394.24 91.02C396.96 93.36 400.01 93.23 403.3 93.75C403.28 95.7 403.27 97.65 403.25 99.6C396.25 99.58 389.25 99.56 382.25 99.54C380.98 96.77 380.46 94.29 378 92.25C370.4 85.96 363.78 92.2 361.25 99.42C349.92 99.44 338.58 99.46 327.25 99.48C325.34 94.16 318.99 90.39 314.37 95.61C313.26 96.85 313.05 98.39 312.25 99.74C303.08 99.75 293.92 99.77 284.75 99.78C280.88 94.9 279.84 95.13 275.75 99.66C272.5 100.16 255.62 100.55 252.87 99.79C251.3 99.36 251.16 98.11 249.25 98.04C242.76 103 231.6 97.93 223.93 100.25C223.92 133.08 223.91 165.92 223.91 198.75C276.69 198.97 329.47 199.19 382.25 199.41C382.31 229.52 382.38 259.64 382.44 289.75C329.71 289.98 276.98 290.21 224.25 290.43C224.18 326.12 224.12 361.81 224.05 397.5C226.59 399.3 233.52 398.07 236.75 398.07C248.08 398.07 259.42 398.07 270.75 398.07C299.92 398.07 329.08 398.08 358.25 398.08C372.93 398.08 387.85 398.84 402.5 397.99C404.31 399.01 403.64 401.89 403.64 403.75C403.65 409.25 403.64 414.75 403.64 420.25C403.64 436.42 403.64 452.58 403.64 468.75C403.64 476.26 405.01 485.32 403.25 492.61C304.08 492.67 204.92 492.72 105.75 492.77C105.55 332 105.36 171.23 105.16 10.46C105.36 8.79 105.55 7.11 105.75 5.44C106.51 5.34 107.27 5.25 108.03 5.15ZM342.83 10.17C331.76 12.28 334.29 29.42 345.6 27.77C356.96 26.12 354.02 8.04 342.83 10.17ZM298.65 13.25C290.87 12.95 291.25 25.22 298.75 24.97C305.9 24.73 305.95 13.54 298.65 13.25ZM263.32 16.05C259.69 17.44 262.19 23.54 266.1 21.83C269.89 20.18 267.09 14.6 263.32 16.05ZM369.8 26.14C356.76 28.57 360.7 48.6 373.94 46.22C386.54 43.96 382.57 23.76 369.8 26.14ZM317.88 29.16C309 31.97 312.87 45.66 322.19 42.93C330.84 40.39 326.45 26.45 317.88 29.16ZM279.86 32.21C274.44 32.96 275.79 41.39 281.38 40.21C285.95 39.24 284.62 31.55 279.86 32.21ZM250.25 33.89C248.15 34.42 247.66 35.37 248.25 37.5C249.6 38.24 250.38 38.26 251.75 37.54C252.28 35.62 252.03 34.76 250.25 33.89ZM341.36 42.13C330.5 45.73 336.47 63.32 347.25 59.04C357.68 54.89 352.17 38.54 341.36 42.13ZM296.82 45.1C289.33 47.3 293.38 58.89 301.1 55.82C307.5 53.27 303.41 43.17 296.82 45.1ZM263.89 47.69C260 48.42 261.54 54.72 265.44 53.71C269.52 52.64 268.01 46.92 263.89 47.69ZM369.87 58.19C356.72 60.8 359.95 80.38 374.25 78.14C386.64 76.2 382.38 55.72 369.87 58.19ZM318.35 61.16C309.15 63.03 311.89 77.61 322.23 75.01C330.64 72.9 326.89 59.42 318.35 61.16ZM279.38 64.19C274.08 65.45 276.27 73.55 281.73 72.04C286.31 70.77 284.17 63.05 279.38 64.19ZM250.25 65.89C248.14 66.45 247.51 67.63 248.35 69.75C249.69 70.44 250.35 70.42 251.7 69.75C252.39 67.82 252 66.81 250.25 65.89ZM342.32 73.63C331.52 75.96 334.77 92.9 345.74 90.97C357.17 88.95 353.85 71.14 342.32 73.63ZM296.86 76.7C289.76 78.35 292.92 89.74 300.12 87.81C307.3 85.89 304.27 74.97 296.86 76.7ZM264.75 78.91C261.18 79.81 260.21 85.31 264.75 85.25C269.34 85.18 268.12 80 264.75 78.91Z" fill="#01bf63" fill-rule="evenodd" stroke="#01bf63" stroke-width="0.25" stroke-linejoin="round"/>
<path d="M108.03 5.15C107.27 5.25 106.51 5.34 105.75 5.44C105.55 7.11 105.36 8.79 105.16 10.46C104.94 8.89 104.72 7.32 104.5 5.75C104.08 5.67 103.67 5.58 103.25 5.5C104.42 3.9 106.23 4.91 108.03 5.15ZM224.05 397.5C283.53 397.66 343.02 397.83 402.5 397.99C387.85 398.84 372.93 398.08 358.25 398.08C329.08 398.08 299.92 398.07 270.75 398.07C259.42 398.07 248.08 398.07 236.75 398.07C233.52 398.07 226.59 399.3 224.05 397.5Z" fill="#ffffff" fill-rule="evenodd" stroke="#ffffff" stroke-width="0.25" stroke-linejoin="round"/>
</svg>
