<svg xmlns="http://www.w3.org/2000/svg" version="1.1" width="2000" height="2000">
<defs>
<clipPath id="roundedCorners">
<rect x="0" y="0" width="2000" height="2000" rx="90" ry="90"/>
</clipPath>
</defs>
<g clip-path="url(#roundedCorners)">
<path d="M0 0 C660 0 1320 0 2000 0 C2000 660 2000 1320 2000 2000 C1340 2000 680 2000 0 2000 C0 1340 0 680 0 0 Z " fill="#0F2C1F" transform="translate(0,0)"/>
<path d="M0 0 C136.95 0 273.9 0 415 0 C415.66 0.99 416.32 1.98 417 3 C419.95769177 3.50010524 419.95769177 3.50010524 423 3 C423.40346146 2.50429001 423.80692291 2.00858002 424.22261047 1.49784851 C426.99773016 -0.84081098 430.0383259 -0.39254721 433.50073242 -0.34057617 C434.26194901 -0.34101425 435.02316559 -0.34145233 435.80744934 -0.34190369 C438.32371666 -0.33981353 440.83931782 -0.31647235 443.35546875 -0.29296875 C445.09995662 -0.28737359 446.84444921 -0.28310311 448.58894348 -0.28010559 C453.18070487 -0.26865049 457.77218164 -0.23917765 462.36383057 -0.20599365 C467.04915517 -0.17530707 471.73452575 -0.16160328 476.41992188 -0.14648438 C485.61340631 -0.11430854 494.80667949 -0.06310418 504 0 C504.9765625 1.79036458 505.953125 3.58072917 506.9296875 5.37109375 C507.91410024 7.16618315 507.91410024 7.16618315 510 8 C512.30410044 8.23604169 512.30410044 8.23604169 514.875 8.25 C515.73867187 8.27578125 516.60234375 8.3015625 517.4921875 8.328125 C520.56955442 7.92547886 521.80767133 7.18283807 524 5 C524.66 3.35 525.32 1.7 526 0 C554.05 0 582.1 0 611 0 C612.32 2.97 613.64 5.94 615 9 C618.666031 13.43782699 622.49145624 16.5164696 628.32421875 17.3203125 C634.40372472 17.59961599 639.00826847 16.53243182 644 13 C648.18807159 8.92511954 648.7765207 5.92927814 651 0 C684.99 0 718.98 0 754 0 C755.32 3.96 756.64 7.92 758 12 C760.06186544 15.00271913 760.06186544 15.00271913 762 17 C762 17.66 762 18.32 762 19 C762.57621094 19.28746094 763.15242188 19.57492187 763.74609375 19.87109375 C765.17789825 20.58823673 766.60782036 21.30916007 768.03515625 22.03515625 C768.70417969 22.37417969 769.37320313 22.71320313 770.0625 23.0625 C771.06990234 23.57490234 771.06990234 23.57490234 772.09765625 24.09765625 C778.08037194 26.93545363 785.24765767 27.09727586 791.578125 25.24609375 C793.80738921 24.27932101 795.89321229 23.20867502 798 22 C799.0725 21.4225 800.145 20.845 801.25 20.25 C807.91974258 14.79293789 809.50155995 8.32813351 812 0 C833.78 0 855.56 0 878 0 C878 2.97 878 5.94 878 9 C876.58460938 9.00386719 876.58460938 9.00386719 875.140625 9.0078125 C864.9989556 9.31328447 856.75642785 10.94226901 848.84375 17.89453125 C842.48304408 24.72689969 839.26982488 31.58900214 839.5 40.9375 C839.51281006 41.72946777 839.52562012 42.52143555 839.53881836 43.33740234 C839.74491508 49.27323246 840.53601518 54.04557661 844 59 C844.48597656 59.70382812 844.97195313 60.40765625 845.47265625 61.1328125 C850.57282062 67.66777488 857.04082687 71.01020672 865 73 C869.29 73.33 873.58 73.66 878 74 C878 83.24 878 92.48 878 102 C875.7725 102.04125 873.545 102.0825 871.25 102.125 C863.44972255 102.4761791 857.71535596 105.02560566 851 109 C850.27167969 109.31066406 849.54335937 109.62132812 848.79296875 109.94140625 C846.4900232 111.30109741 846.04242773 112.56766863 845 115 C844.57460937 115.64195312 844.14921875 116.28390625 843.7109375 116.9453125 C838.803665 124.95191501 838.60031071 133.89890922 840 143 C842.90860836 152.69888677 848.61552597 158.83266234 857.1875 163.875 C863.96242192 165.87415729 870.96781059 166 878 166 C878 175.57 878 185.14 878 195 C875.56625 195.061875 873.1325 195.12375 870.625 195.1875 C863.45414515 195.52935027 858.06337972 196.97372414 852 201 C850.6078125 201.8971875 850.6078125 201.8971875 849.1875 202.8125 C843.35792823 208.64207177 839.79153871 215.69978434 839.62011719 223.97753906 C839.62253418 225.07146973 839.62253418 225.07146973 839.625 226.1875 C839.62661133 226.9412793 839.62822266 227.69505859 839.62988281 228.47167969 C839.80960151 236.67883359 841.97506299 244.13789913 848 250 C855.31346235 255.57948658 861.61655052 258.19289807 870.875 258.625 C873.22625 258.74875 875.5775 258.8725 878 259 C878 265.93 878 272.86 878 280 C856.22 280 834.44 280 812 280 C811.34 276.37 810.68 272.74 810 269 C806.51350944 261.26434908 800.69252672 256.35379204 793 253 C789.4917453 252.01047282 789.4917453 252.01047282 786 252 C785.33742188 251.91621094 784.67484375 251.83242188 783.9921875 251.74609375 C776.7303817 251.13443627 770.99199606 254.11629885 765 258 C757.85375978 264.26346937 756.05057261 270.54484647 755 280 C720.68 280 686.36 280 651 280 C650.34 277.36 649.68 274.72 649 272 C646.2497654 266.60530905 642.61565138 263.20313535 637 261 C630.70257006 259.94584506 625.17698037 260.55569423 619.6484375 263.81640625 C613.51995238 268.21671666 613.30262959 272.32456803 611 280 C582.95 280 554.9 280 526 280 C525.01 277.69 524.02 275.38 523 273 C520.09633989 270.49962602 518.31134227 270.03891778 514.5 269.5625 C510.3364492 270.08294385 508.82756373 270.93007366 506 274 C505.34 275.98 504.68 277.96 504 280 C480.24 280 456.48 280 432 280 C431.67 278.68 431.34 277.36 431 276 C427.7 276 424.4 276 421 276 C420.67 277.32 420.34 278.64 420 280 C396.57 280 373.14 280 349 280 C349 375.7 349 471.4 349 570 C503.44 570 657.88 570 817 570 C817 658.77 817 747.54 817 839 C662.56 839 508.12 839 349 839 C349 942.95 349 1046.9 349 1154 C523.57 1154 698.14 1154 878 1154 C878 1246.4 878 1338.8 878 1434 C588.26 1434 298.52 1434 0 1434 C0 960.78 0 487.56 0 0 Z " fill="#00BE62" transform="translate(574,280)"/>
<path d="M0 0 C4.20557227 2.54677617 6.93262835 5.56558496 9.6640625 9.61328125 C10.09589844 10.1959375 10.52773437 10.77859375 10.97265625 11.37890625 C14.99036513 17.77387541 14.42310404 25.35152305 13.6640625 32.61328125 C11.77430824 40.30648202 6.80412166 46.84428064 0.2578125 51.22265625 C-7.05487487 55.05106317 -14.20168022 55.79011245 -22.3359375 54.61328125 C-31.42077234 51.65346139 -37.40415767 45.60492448 -42.3359375 37.61328125 C-45.35308814 31.43530612 -45.40728652 23.7126347 -43.68359375 17.1171875 C-40.1349875 8.32943726 -33.73222053 1.86618113 -25.3359375 -2.38671875 C-16.81391915 -5.22739153 -7.97667384 -3.73577733 0 0 Z " fill="#0E2D1F" transform="translate(1372.3359375,440.38671875)"/>
<path d="M0 0 C6.59046727 3.73459812 12.41137819 9.04244911 15.1328125 16.31640625 C16.97327891 25.66932192 16.14872349 34.9028622 11 43 C6.91544859 48.90765607 1.76929986 52.19352598 -4.8125 54.875 C-15.21116741 56.66787369 -22.52580921 55.45810184 -31.4375 49.5 C-37.85202224 44.10072588 -41.66440773 37.07104632 -42.81640625 28.76953125 C-43.16429885 20.81289086 -40.87449295 14.47139592 -36.75 7.75 C-26.49150786 -2.2312356 -13.50651142 -6.25994484 0 0 Z " fill="#0E2D1F" transform="translate(1370.4375,345.5)"/>
<path d="M0 0 C7.47499159 4.25118005 11.79469264 9.702803 14.625 17.8125 C15.8614938 24.75664917 14.67608728 30.39274839 11.25390625 36.515625 C7.84874226 41.3171512 3.19420915 45.70575889 -2.375 47.8125 C-11.03384494 48.8064513 -18.96126046 48.95225016 -26.31640625 43.73046875 C-31.53969932 38.86398508 -35.0761355 33.41362318 -35.54296875 26.2265625 C-35.60015954 18.05971729 -34.57115232 12.37606083 -29.375 5.8125 C-20.63178645 -1.88592703 -11.08218762 -5.26776631 0 0 Z " fill="#0E2D1F" transform="translate(1287.375,391.1875)"/>
<path d="M0 0 C6.49579363 3.78702139 10.55192351 8.99170802 12.9296875 16.125 C13.83172524 25.14537742 12.03388655 31.46870142 7.0546875 38.9375 C1.40606996 44.75225335 -4.51271806 47.18628802 -12.5078125 47.4375 C-21.39780701 47.22125689 -27.01444599 43.31756778 -33.0703125 37.125 C-37.88986685 30.4398117 -37.73251701 23.12903716 -37.0703125 15.125 C-35.33485444 8.38213746 -30.58786381 4.07506514 -25.0703125 0.125 C-16.99343554 -4.59921105 -8.19164511 -4.19785372 0 0 Z " fill="#0E2D1F" transform="translate(1289.0703125,484.875)"/>
<path d="M0 0 C7.04237162 3.30615156 11.21949761 8.65700637 14.46875 15.59765625 C16.95471286 22.57669132 15.83199181 29.19991042 12.89453125 35.875 C9.66087067 41.14149229 4.28103095 46.10492427 -1.578125 48.2734375 C-10.23696994 49.2673888 -18.16438546 49.41318766 -25.51953125 44.19140625 C-30.74282432 39.32492258 -34.2792605 33.87456068 -34.74609375 26.6875 C-34.80382699 18.44319275 -33.67770206 12.97573878 -28.578125 6.2734375 C-20.48289194 -1.18269822 -10.62920032 -2.99550191 0 0 Z " fill="#0E2D1F" transform="translate(1286.578125,297.7265625)"/>
<path d="M0 0 C5.06676664 2.25273906 8.81614811 4.83321015 11.4609375 9.78515625 C13.35408891 15.59846966 13.20818035 22.25922095 11.171875 28.03515625 C8.14057863 32.92434394 4.54289744 36.0560803 -0.640625 38.53515625 C-7.27277661 39.86158657 -12.88123724 39.93226962 -18.90625 36.5703125 C-23.10585819 33.38531553 -26.10786015 29.13345081 -27.765625 24.16015625 C-28.52556103 17.44015048 -28.2210053 12.37341463 -24.1953125 6.8125 C-17.59784022 -0.81244747 -9.64431968 -2.9287129 0 0 Z " fill="#0E2D1F" transform="translate(1212.765625,352.83984375)"/>
<path d="M0 0 C4.40985125 3.14224219 7.94548364 6.64895091 9.6875 11.875 C10.37467338 20.17394003 9.82244698 26.04339813 4.4375 32.625 C-1.29855295 37.31813423 -6.28082809 38.51600268 -13.59765625 38.28515625 C-19.66039957 37.36920222 -23.65856492 34.06927613 -27.25 29.25 C-30.59826866 23.77101492 -30.97507091 19.16475761 -30.3125 12.875 C-28.52270063 6.96354835 -25.35753582 3.30562436 -20.3125 -0.125 C-13.85894609 -3.20510527 -6.25645851 -3.6781826 0 0 Z " fill="#0E2D1F" transform="translate(1215.3125,448.125)"/>
<path d="M0 0 C4.12593192 2.87855716 7.06537651 6.00862953 8.6875 10.875 C9.27467652 16.86420055 7.99317074 20.96981116 4.6875 25.875 C-0.19200507 30.51648043 -4.27993897 31.23787198 -10.80859375 31.15234375 C-15.78642193 30.60097745 -18.37209084 27.86490438 -21.6875 24.375 C-24.08553575 19.20999991 -24.06631535 14.4747712 -23.3125 8.875 C-18.69464838 -1.07114196 -9.86404067 -3.35005155 0 0 Z " fill="#0E2E20" transform="translate(1150.3125,492.125)"/>
<path d="M0 0 C4.77184767 2.30775784 9.1694682 4.81660637 11 10 C11.30078125 12.83984375 11.30078125 12.83984375 11.3125 15.9375 C11.32925781 16.95714844 11.34601563 17.97679687 11.36328125 19.02734375 C10.7950821 23.6768013 8.90657789 26.20398039 5.4375 29.25 C0.51538161 32.78382858 -4.06915242 32.59560138 -10 32 C-14.86479088 29.70028068 -17.73361668 26.881441 -20 22 C-20.75070518 16.42333292 -20.74743187 11.67424739 -18.4375 6.5 C-13.1048716 1.03063753 -7.63633124 -1.70260963 0 0 Z " fill="#0E2D1F" transform="translate(1147,398)"/>
<path d="M0 0 C3.85884581 2.22246307 6.99253702 4.98507404 9 9 C9.67287171 14.3982662 10.28580404 19.75825788 7.5078125 24.6015625 C4.40247801 28.14499398 2.04575916 30.74500452 -2.7578125 31.34375 C-8.80719459 31.62446379 -13.0156601 31.7762481 -17.75 27.6875 C-21.56761498 23.86186482 -22.21479926 20.56782383 -22.4375 15.25 C-22.41114045 9.80675293 -21.44367849 7.11446606 -17.60546875 3.3046875 C-12.16614949 -1.11558655 -6.7763452 -1.07751072 0 0 Z " fill="#0E2D1F" transform="translate(1149,306)"/>
<path d="M0 0 C3.62535141 1.647887 6.20557709 3.41115419 8 7 C8.71909475 11.67411586 8.66234072 14.94025485 6.125 19 C2.42910391 22.47849044 -0.59606367 22.39101471 -5.515625 22.35546875 C-8 22 -8 22 -11.0625 19.6875 C-14.10867857 15.46215553 -14.52243174 12.13724549 -14 7 C-10.35973954 0.90120542 -6.94453392 -0.47081586 0 0 Z " fill="#0E2F20" transform="translate(1092,361)"/>
<path d="M0 0 C3.62342508 1.6470114 6.16816086 3.4327343 8 7 C8.84457478 13.54545455 8.84457478 13.54545455 6.9453125 16.81640625 C5.173471 18.99189211 3.52592891 20.73703554 1 22 C-3.72102578 22.47210258 -6.65955345 22.73364092 -10.4375 19.6875 C-13.4301569 16.54885984 -13.89293685 14.94572445 -14.375 10.6875 C-13.87765929 5.79698299 -12.42915508 4.42915508 -9 1 C-5.93570224 -0.53214888 -3.3834358 -0.22938548 0 0 Z " fill="#0E2E20" transform="translate(1092,455)"/>
<path d="M0 0 C3.00342896 2.05497771 3.83287356 3.47633714 4.9375 6.9375 C5.01245915 10.61049821 4.178742 12.09501066 2 15 C0 17 0 17 -3.3125 17.4375 C-7 17 -7 17 -9.9375 15 C-12.80380719 10.83082591 -12.79190864 8.98902441 -12 4 C-8.51708493 -0.22171524 -5.31642554 -0.77329826 0 0 Z " fill="#0E3121" transform="translate(1047,406)"/>
<path d="M0 0 C3.00342896 2.05497771 3.83287356 3.47633714 4.9375 6.9375 C5.01245915 10.61049821 4.178742 12.09501066 2 15 C0 17 0 17 -3.3125 17.4375 C-7 17 -7 17 -9.9375 15 C-12.80380719 10.83082591 -12.79190864 8.98902441 -12 4 C-8.51708493 -0.22171524 -5.31642554 -0.77329826 0 0 Z " fill="#0E3121" transform="translate(1047,313)"/>
<path d="M0 0 C2.5 1.5 2.5 1.5 4 4 C4.791013 8.02098277 4.62153384 10.96411027 2.5 14.5 C-1.03588973 16.62153384 -3.97901723 16.791013 -8 16 C-10.5 14.5 -10.5 14.5 -12 12 C-12.791013 7.97901723 -12.62153384 5.03588973 -10.5 1.5 C-6.96411027 -0.62153384 -4.02098277 -0.791013 0 0 Z " fill="#0E2E20" transform="translate(1047,499)"/>
<path d="M0 0 C0.94552734 0.16242188 0.94552734 0.16242188 1.91015625 0.328125 C3.91015625 3.328125 3.91015625 3.328125 3.72265625 6.390625 C2.91015625 9.328125 2.91015625 9.328125 -0.08984375 11.328125 C-2.58984375 11.703125 -2.58984375 11.703125 -5.08984375 11.328125 C-6.96484375 9.703125 -6.96484375 9.703125 -8.08984375 7.328125 C-7.55398259 0.49589519 -6.69947653 0.24317519 0 0 Z " fill="#0E3422" transform="translate(1002.08984375,460.671875)"/>
<path d="M0 0 C3.5 0.1875 3.5 0.1875 7 1 C9 4 9 4 8.75 7.125 C8.5025 8.07375 8.255 9.0225 8 10 C5.20129973 11.39935013 3.09501208 11.25265405 0 11 C-1.9375 9.875 -1.9375 9.875 -3 8 C-2.77669287 4.35265021 -2.61627165 2.61627165 0 0 Z " fill="#0E3322" transform="translate(997,366)"/>
</g>
</svg>
